# xmcd CD database file
#
# Track frame offsets:
#	150
#	20150
#	33415
#	54215
#	78327
#	113982
#	137185
#	154410
#
# Disc length: 2446 seconds
#
# Revision: 0
# Processed by: cddbd v1.5PL3 Copyright (c) Steve Scherf et al.
# Submitted via: CDex 1.50beta8
#
DISCID=66098c08
DTITLE=Losalios - School Of High Sense
DYEAR=2002
DGENRE=JPop
TTITLE0=Anaconda
TTITLE1=Coganemushi
TTITLE2=Hit Man
TTITLE3=Cololado Shit Dog
TTITLE4=Wanna Wanna Jesus
TTITLE5=Snake and Steak
TTITLE6=IQ 69
TTITLE7=Funkey Tockey
EXTD=YEAR: 2002
EXTT0=
EXTT1=
EXTT2=
EXTT3=
EXTT4=
EXTT5=
EXTT6=
EXTT7=
PLAYORDER=
